<mxfile host="app.diagrams.net" modified="2020-09-10T15:48:16.299Z" agent="5.0 (Windows NT 10.0; Win64; x64) AppleWebKit/537.36 (KHTML, like Gecko) Chrome/85.0.4183.83 Safari/537.36 Edg/85.0.564.44" etag="6LjqJ39inO_Jxf3hrXe6" version="13.6.9" type="github">
  <diagram id="C5RBs43oDa-KdzZeNtuy" name="Page-1">
    <mxGraphModel dx="5567" dy="2647" grid="1" gridSize="10" guides="1" tooltips="1" connect="1" arrows="1" fold="1" page="1" pageScale="1" pageWidth="827" pageHeight="1169" math="0" shadow="0">
      <root>
        <mxCell id="WIyWlLk6GJQsqaUBKTNV-0" />
        <mxCell id="WIyWlLk6GJQsqaUBKTNV-1" parent="WIyWlLk6GJQsqaUBKTNV-0" />
        <mxCell id="GzKHJA3VvgUtTRqvoM-W-0" value="Scaford" style="rounded=1;whiteSpace=wrap;html=1;" vertex="1" parent="WIyWlLk6GJQsqaUBKTNV-1">
          <mxGeometry x="160" y="170" width="120" height="60" as="geometry" />
        </mxCell>
        <mxCell id="GzKHJA3VvgUtTRqvoM-W-1" value="Appbar" style="rounded=1;whiteSpace=wrap;html=1;" vertex="1" parent="WIyWlLk6GJQsqaUBKTNV-1">
          <mxGeometry x="400" y="170" width="120" height="60" as="geometry" />
        </mxCell>
        <mxCell id="GzKHJA3VvgUtTRqvoM-W-2" value="" style="endArrow=classic;html=1;exitX=1;exitY=0.5;exitDx=0;exitDy=0;" edge="1" parent="WIyWlLk6GJQsqaUBKTNV-1" source="GzKHJA3VvgUtTRqvoM-W-0" target="GzKHJA3VvgUtTRqvoM-W-1">
          <mxGeometry width="50" height="50" relative="1" as="geometry">
            <mxPoint x="330" y="320" as="sourcePoint" />
            <mxPoint x="380" y="270" as="targetPoint" />
          </mxGeometry>
        </mxCell>
        <mxCell id="GzKHJA3VvgUtTRqvoM-W-3" value="bottom" style="rounded=1;whiteSpace=wrap;html=1;" vertex="1" parent="WIyWlLk6GJQsqaUBKTNV-1">
          <mxGeometry x="-20" y="170" width="120" height="60" as="geometry" />
        </mxCell>
        <mxCell id="GzKHJA3VvgUtTRqvoM-W-4" value="" style="endArrow=classic;html=1;exitX=0;exitY=0.5;exitDx=0;exitDy=0;" edge="1" parent="WIyWlLk6GJQsqaUBKTNV-1" source="GzKHJA3VvgUtTRqvoM-W-0" target="GzKHJA3VvgUtTRqvoM-W-3">
          <mxGeometry width="50" height="50" relative="1" as="geometry">
            <mxPoint x="330" y="320" as="sourcePoint" />
            <mxPoint x="380" y="270" as="targetPoint" />
          </mxGeometry>
        </mxCell>
        <mxCell id="GzKHJA3VvgUtTRqvoM-W-5" value="body" style="rounded=1;whiteSpace=wrap;html=1;" vertex="1" parent="WIyWlLk6GJQsqaUBKTNV-1">
          <mxGeometry x="160" y="260" width="120" height="60" as="geometry" />
        </mxCell>
        <mxCell id="GzKHJA3VvgUtTRqvoM-W-6" value="" style="endArrow=classic;html=1;exitX=0.5;exitY=1;exitDx=0;exitDy=0;entryX=0.5;entryY=0;entryDx=0;entryDy=0;" edge="1" parent="WIyWlLk6GJQsqaUBKTNV-1" source="GzKHJA3VvgUtTRqvoM-W-0" target="GzKHJA3VvgUtTRqvoM-W-5">
          <mxGeometry width="50" height="50" relative="1" as="geometry">
            <mxPoint x="330" y="320" as="sourcePoint" />
            <mxPoint x="380" y="270" as="targetPoint" />
          </mxGeometry>
        </mxCell>
        <mxCell id="GzKHJA3VvgUtTRqvoM-W-8" value="" style="edgeStyle=orthogonalEdgeStyle;rounded=0;orthogonalLoop=1;jettySize=auto;html=1;" edge="1" parent="WIyWlLk6GJQsqaUBKTNV-1" source="GzKHJA3VvgUtTRqvoM-W-7" target="GzKHJA3VvgUtTRqvoM-W-0">
          <mxGeometry relative="1" as="geometry" />
        </mxCell>
        <mxCell id="GzKHJA3VvgUtTRqvoM-W-7" value="List" style="shape=trapezoid;perimeter=trapezoidPerimeter;whiteSpace=wrap;html=1;fixedSize=1;" vertex="1" parent="WIyWlLk6GJQsqaUBKTNV-1">
          <mxGeometry x="160" y="50" width="120" height="60" as="geometry" />
        </mxCell>
        <mxCell id="GzKHJA3VvgUtTRqvoM-W-9" value="viewcar" style="shape=trapezoid;perimeter=trapezoidPerimeter;whiteSpace=wrap;html=1;fixedSize=1;" vertex="1" parent="WIyWlLk6GJQsqaUBKTNV-1">
          <mxGeometry x="160" y="410" width="120" height="60" as="geometry" />
        </mxCell>
        <mxCell id="GzKHJA3VvgUtTRqvoM-W-10" value="" style="endArrow=classic;html=1;exitX=0.5;exitY=1;exitDx=0;exitDy=0;entryX=0.5;entryY=0;entryDx=0;entryDy=0;" edge="1" parent="WIyWlLk6GJQsqaUBKTNV-1" source="GzKHJA3VvgUtTRqvoM-W-5" target="GzKHJA3VvgUtTRqvoM-W-9">
          <mxGeometry width="50" height="50" relative="1" as="geometry">
            <mxPoint x="330" y="320" as="sourcePoint" />
            <mxPoint x="380" y="270" as="targetPoint" />
          </mxGeometry>
        </mxCell>
        <mxCell id="GzKHJA3VvgUtTRqvoM-W-11" value="Appbar" style="rounded=1;whiteSpace=wrap;html=1;" vertex="1" parent="WIyWlLk6GJQsqaUBKTNV-1">
          <mxGeometry x="390" y="510" width="120" height="60" as="geometry" />
        </mxCell>
        <mxCell id="GzKHJA3VvgUtTRqvoM-W-12" value="" style="endArrow=classic;html=1;" edge="1" parent="WIyWlLk6GJQsqaUBKTNV-1" target="GzKHJA3VvgUtTRqvoM-W-11" source="GzKHJA3VvgUtTRqvoM-W-54">
          <mxGeometry width="50" height="50" relative="1" as="geometry">
            <mxPoint x="294" y="440" as="sourcePoint" />
            <mxPoint x="394" y="510" as="targetPoint" />
          </mxGeometry>
        </mxCell>
        <mxCell id="GzKHJA3VvgUtTRqvoM-W-13" value="body" style="rounded=1;whiteSpace=wrap;html=1;" vertex="1" parent="WIyWlLk6GJQsqaUBKTNV-1">
          <mxGeometry x="160" y="610" width="120" height="60" as="geometry" />
        </mxCell>
        <mxCell id="GzKHJA3VvgUtTRqvoM-W-14" value="" style="endArrow=classic;html=1;exitX=0.5;exitY=1;exitDx=0;exitDy=0;entryX=0.5;entryY=0;entryDx=0;entryDy=0;" edge="1" parent="WIyWlLk6GJQsqaUBKTNV-1" source="GzKHJA3VvgUtTRqvoM-W-9" target="GzKHJA3VvgUtTRqvoM-W-54">
          <mxGeometry width="50" height="50" relative="1" as="geometry">
            <mxPoint x="330" y="570" as="sourcePoint" />
            <mxPoint x="380" y="520" as="targetPoint" />
          </mxGeometry>
        </mxCell>
        <mxCell id="GzKHJA3VvgUtTRqvoM-W-15" value="listview" style="rounded=1;whiteSpace=wrap;html=1;" vertex="1" parent="WIyWlLk6GJQsqaUBKTNV-1">
          <mxGeometry x="160" y="710" width="120" height="60" as="geometry" />
        </mxCell>
        <mxCell id="GzKHJA3VvgUtTRqvoM-W-16" value="" style="endArrow=classic;html=1;exitX=0.5;exitY=1;exitDx=0;exitDy=0;" edge="1" parent="WIyWlLk6GJQsqaUBKTNV-1" source="GzKHJA3VvgUtTRqvoM-W-13" target="GzKHJA3VvgUtTRqvoM-W-15">
          <mxGeometry width="50" height="50" relative="1" as="geometry">
            <mxPoint x="330" y="840" as="sourcePoint" />
            <mxPoint x="380" y="790" as="targetPoint" />
          </mxGeometry>
        </mxCell>
        <mxCell id="GzKHJA3VvgUtTRqvoM-W-17" value="container" style="rounded=1;whiteSpace=wrap;html=1;" vertex="1" parent="WIyWlLk6GJQsqaUBKTNV-1">
          <mxGeometry x="160" y="800" width="120" height="60" as="geometry" />
        </mxCell>
        <mxCell id="GzKHJA3VvgUtTRqvoM-W-18" value="" style="endArrow=classic;html=1;exitX=0.5;exitY=1;exitDx=0;exitDy=0;entryX=0.5;entryY=0;entryDx=0;entryDy=0;" edge="1" parent="WIyWlLk6GJQsqaUBKTNV-1" source="GzKHJA3VvgUtTRqvoM-W-15" target="GzKHJA3VvgUtTRqvoM-W-17">
          <mxGeometry width="50" height="50" relative="1" as="geometry">
            <mxPoint x="330" y="930" as="sourcePoint" />
            <mxPoint x="380" y="880" as="targetPoint" />
          </mxGeometry>
        </mxCell>
        <mxCell id="GzKHJA3VvgUtTRqvoM-W-56" value="" style="edgeStyle=orthogonalEdgeStyle;rounded=0;orthogonalLoop=1;jettySize=auto;html=1;" edge="1" parent="WIyWlLk6GJQsqaUBKTNV-1" source="GzKHJA3VvgUtTRqvoM-W-19" target="GzKHJA3VvgUtTRqvoM-W-22">
          <mxGeometry relative="1" as="geometry" />
        </mxCell>
        <mxCell id="GzKHJA3VvgUtTRqvoM-W-58" value="" style="edgeStyle=orthogonalEdgeStyle;rounded=0;orthogonalLoop=1;jettySize=auto;html=1;" edge="1" parent="WIyWlLk6GJQsqaUBKTNV-1" source="GzKHJA3VvgUtTRqvoM-W-19" target="GzKHJA3VvgUtTRqvoM-W-21">
          <mxGeometry relative="1" as="geometry" />
        </mxCell>
        <mxCell id="GzKHJA3VvgUtTRqvoM-W-19" value="Row" style="rounded=1;whiteSpace=wrap;html=1;" vertex="1" parent="WIyWlLk6GJQsqaUBKTNV-1">
          <mxGeometry x="160" y="890" width="120" height="60" as="geometry" />
        </mxCell>
        <mxCell id="GzKHJA3VvgUtTRqvoM-W-20" value="" style="endArrow=classic;html=1;exitX=0.5;exitY=1;exitDx=0;exitDy=0;entryX=0.5;entryY=0;entryDx=0;entryDy=0;" edge="1" parent="WIyWlLk6GJQsqaUBKTNV-1" source="GzKHJA3VvgUtTRqvoM-W-17" target="GzKHJA3VvgUtTRqvoM-W-19">
          <mxGeometry width="50" height="50" relative="1" as="geometry">
            <mxPoint x="330" y="930" as="sourcePoint" />
            <mxPoint x="380" y="880" as="targetPoint" />
          </mxGeometry>
        </mxCell>
        <mxCell id="GzKHJA3VvgUtTRqvoM-W-59" value="" style="edgeStyle=orthogonalEdgeStyle;rounded=0;orthogonalLoop=1;jettySize=auto;html=1;" edge="1" parent="WIyWlLk6GJQsqaUBKTNV-1" source="GzKHJA3VvgUtTRqvoM-W-21" target="GzKHJA3VvgUtTRqvoM-W-23">
          <mxGeometry relative="1" as="geometry" />
        </mxCell>
        <mxCell id="GzKHJA3VvgUtTRqvoM-W-21" value="container" style="rounded=1;whiteSpace=wrap;html=1;" vertex="1" parent="WIyWlLk6GJQsqaUBKTNV-1">
          <mxGeometry x="330" y="890" width="120" height="60" as="geometry" />
        </mxCell>
        <mxCell id="GzKHJA3VvgUtTRqvoM-W-57" value="" style="edgeStyle=orthogonalEdgeStyle;rounded=0;orthogonalLoop=1;jettySize=auto;html=1;" edge="1" parent="WIyWlLk6GJQsqaUBKTNV-1" source="GzKHJA3VvgUtTRqvoM-W-22" target="GzKHJA3VvgUtTRqvoM-W-32">
          <mxGeometry relative="1" as="geometry" />
        </mxCell>
        <mxCell id="GzKHJA3VvgUtTRqvoM-W-22" value="container" style="rounded=1;whiteSpace=wrap;html=1;" vertex="1" parent="WIyWlLk6GJQsqaUBKTNV-1">
          <mxGeometry x="160" y="980" width="120" height="60" as="geometry" />
        </mxCell>
        <mxCell id="GzKHJA3VvgUtTRqvoM-W-23" value="IMG" style="rounded=1;whiteSpace=wrap;html=1;" vertex="1" parent="WIyWlLk6GJQsqaUBKTNV-1">
          <mxGeometry x="490" y="890" width="120" height="60" as="geometry" />
        </mxCell>
        <mxCell id="GzKHJA3VvgUtTRqvoM-W-62" value="" style="edgeStyle=orthogonalEdgeStyle;rounded=0;orthogonalLoop=1;jettySize=auto;html=1;" edge="1" parent="WIyWlLk6GJQsqaUBKTNV-1" source="GzKHJA3VvgUtTRqvoM-W-26" target="GzKHJA3VvgUtTRqvoM-W-27">
          <mxGeometry relative="1" as="geometry" />
        </mxCell>
        <mxCell id="GzKHJA3VvgUtTRqvoM-W-26" value="Row" style="rounded=1;whiteSpace=wrap;html=1;" vertex="1" parent="WIyWlLk6GJQsqaUBKTNV-1">
          <mxGeometry x="440" y="1070" width="120" height="60" as="geometry" />
        </mxCell>
        <mxCell id="GzKHJA3VvgUtTRqvoM-W-63" value="" style="edgeStyle=orthogonalEdgeStyle;rounded=0;orthogonalLoop=1;jettySize=auto;html=1;" edge="1" parent="WIyWlLk6GJQsqaUBKTNV-1" source="GzKHJA3VvgUtTRqvoM-W-27" target="GzKHJA3VvgUtTRqvoM-W-28">
          <mxGeometry relative="1" as="geometry" />
        </mxCell>
        <mxCell id="GzKHJA3VvgUtTRqvoM-W-27" value="boxsize" style="rounded=1;whiteSpace=wrap;html=1;" vertex="1" parent="WIyWlLk6GJQsqaUBKTNV-1">
          <mxGeometry x="574" y="1070" width="120" height="60" as="geometry" />
        </mxCell>
        <mxCell id="GzKHJA3VvgUtTRqvoM-W-64" value="" style="edgeStyle=orthogonalEdgeStyle;rounded=0;orthogonalLoop=1;jettySize=auto;html=1;" edge="1" parent="WIyWlLk6GJQsqaUBKTNV-1" source="GzKHJA3VvgUtTRqvoM-W-28" target="GzKHJA3VvgUtTRqvoM-W-30">
          <mxGeometry relative="1" as="geometry" />
        </mxCell>
        <mxCell id="GzKHJA3VvgUtTRqvoM-W-65" value="" style="edgeStyle=orthogonalEdgeStyle;rounded=0;orthogonalLoop=1;jettySize=auto;html=1;" edge="1" parent="WIyWlLk6GJQsqaUBKTNV-1" source="GzKHJA3VvgUtTRqvoM-W-28" target="GzKHJA3VvgUtTRqvoM-W-29">
          <mxGeometry relative="1" as="geometry" />
        </mxCell>
        <mxCell id="GzKHJA3VvgUtTRqvoM-W-28" value="extended" style="rounded=1;whiteSpace=wrap;html=1;" vertex="1" parent="WIyWlLk6GJQsqaUBKTNV-1">
          <mxGeometry x="720" y="1070" width="120" height="60" as="geometry" />
        </mxCell>
        <mxCell id="GzKHJA3VvgUtTRqvoM-W-29" value="ประเภทรถ" style="rounded=1;whiteSpace=wrap;html=1;" vertex="1" parent="WIyWlLk6GJQsqaUBKTNV-1">
          <mxGeometry x="720" y="1150" width="120" height="60" as="geometry" />
        </mxCell>
        <mxCell id="GzKHJA3VvgUtTRqvoM-W-66" value="" style="edgeStyle=orthogonalEdgeStyle;rounded=0;orthogonalLoop=1;jettySize=auto;html=1;" edge="1" parent="WIyWlLk6GJQsqaUBKTNV-1" source="GzKHJA3VvgUtTRqvoM-W-30" target="GzKHJA3VvgUtTRqvoM-W-31">
          <mxGeometry relative="1" as="geometry" />
        </mxCell>
        <mxCell id="GzKHJA3VvgUtTRqvoM-W-30" value="container" style="rounded=1;whiteSpace=wrap;html=1;" vertex="1" parent="WIyWlLk6GJQsqaUBKTNV-1">
          <mxGeometry x="860" y="1070" width="120" height="60" as="geometry" />
        </mxCell>
        <mxCell id="GzKHJA3VvgUtTRqvoM-W-31" value="toppost" style="rounded=1;whiteSpace=wrap;html=1;" vertex="1" parent="WIyWlLk6GJQsqaUBKTNV-1">
          <mxGeometry x="1000" y="1070" width="120" height="60" as="geometry" />
        </mxCell>
        <mxCell id="GzKHJA3VvgUtTRqvoM-W-60" value="" style="edgeStyle=orthogonalEdgeStyle;rounded=0;orthogonalLoop=1;jettySize=auto;html=1;" edge="1" parent="WIyWlLk6GJQsqaUBKTNV-1" source="GzKHJA3VvgUtTRqvoM-W-32" target="GzKHJA3VvgUtTRqvoM-W-33">
          <mxGeometry relative="1" as="geometry" />
        </mxCell>
        <mxCell id="GzKHJA3VvgUtTRqvoM-W-67" style="edgeStyle=orthogonalEdgeStyle;rounded=0;orthogonalLoop=1;jettySize=auto;html=1;entryX=0;entryY=0.5;entryDx=0;entryDy=0;" edge="1" parent="WIyWlLk6GJQsqaUBKTNV-1" source="GzKHJA3VvgUtTRqvoM-W-32" target="GzKHJA3VvgUtTRqvoM-W-34">
          <mxGeometry relative="1" as="geometry">
            <Array as="points">
              <mxPoint x="260" y="1310" />
            </Array>
          </mxGeometry>
        </mxCell>
        <mxCell id="GzKHJA3VvgUtTRqvoM-W-76" style="edgeStyle=orthogonalEdgeStyle;rounded=0;orthogonalLoop=1;jettySize=auto;html=1;entryX=0;entryY=0.5;entryDx=0;entryDy=0;" edge="1" parent="WIyWlLk6GJQsqaUBKTNV-1" source="GzKHJA3VvgUtTRqvoM-W-32" target="GzKHJA3VvgUtTRqvoM-W-42">
          <mxGeometry relative="1" as="geometry">
            <Array as="points">
              <mxPoint x="230" y="1520" />
            </Array>
          </mxGeometry>
        </mxCell>
        <mxCell id="GzKHJA3VvgUtTRqvoM-W-77" style="edgeStyle=orthogonalEdgeStyle;rounded=0;orthogonalLoop=1;jettySize=auto;html=1;exitX=0.25;exitY=1;exitDx=0;exitDy=0;entryX=0;entryY=0.5;entryDx=0;entryDy=0;" edge="1" parent="WIyWlLk6GJQsqaUBKTNV-1" source="GzKHJA3VvgUtTRqvoM-W-32" target="GzKHJA3VvgUtTRqvoM-W-48">
          <mxGeometry relative="1" as="geometry" />
        </mxCell>
        <mxCell id="GzKHJA3VvgUtTRqvoM-W-32" value="Colum" style="rounded=1;whiteSpace=wrap;html=1;" vertex="1" parent="WIyWlLk6GJQsqaUBKTNV-1">
          <mxGeometry x="160" y="1070" width="120" height="60" as="geometry" />
        </mxCell>
        <mxCell id="GzKHJA3VvgUtTRqvoM-W-61" value="" style="edgeStyle=orthogonalEdgeStyle;rounded=0;orthogonalLoop=1;jettySize=auto;html=1;" edge="1" parent="WIyWlLk6GJQsqaUBKTNV-1" source="GzKHJA3VvgUtTRqvoM-W-33" target="GzKHJA3VvgUtTRqvoM-W-26">
          <mxGeometry relative="1" as="geometry" />
        </mxCell>
        <mxCell id="GzKHJA3VvgUtTRqvoM-W-33" value="container" style="rounded=1;whiteSpace=wrap;html=1;" vertex="1" parent="WIyWlLk6GJQsqaUBKTNV-1">
          <mxGeometry x="300" y="1070" width="120" height="60" as="geometry" />
        </mxCell>
        <mxCell id="GzKHJA3VvgUtTRqvoM-W-68" value="" style="edgeStyle=orthogonalEdgeStyle;rounded=0;orthogonalLoop=1;jettySize=auto;html=1;" edge="1" parent="WIyWlLk6GJQsqaUBKTNV-1" source="GzKHJA3VvgUtTRqvoM-W-34" target="GzKHJA3VvgUtTRqvoM-W-35">
          <mxGeometry relative="1" as="geometry" />
        </mxCell>
        <mxCell id="GzKHJA3VvgUtTRqvoM-W-34" value="container" style="rounded=1;whiteSpace=wrap;html=1;" vertex="1" parent="WIyWlLk6GJQsqaUBKTNV-1">
          <mxGeometry x="300" y="1280" width="120" height="60" as="geometry" />
        </mxCell>
        <mxCell id="GzKHJA3VvgUtTRqvoM-W-69" value="" style="edgeStyle=orthogonalEdgeStyle;rounded=0;orthogonalLoop=1;jettySize=auto;html=1;" edge="1" parent="WIyWlLk6GJQsqaUBKTNV-1" source="GzKHJA3VvgUtTRqvoM-W-35" target="GzKHJA3VvgUtTRqvoM-W-36">
          <mxGeometry relative="1" as="geometry" />
        </mxCell>
        <mxCell id="GzKHJA3VvgUtTRqvoM-W-74" value="" style="edgeStyle=orthogonalEdgeStyle;rounded=0;orthogonalLoop=1;jettySize=auto;html=1;exitX=0.25;exitY=1;exitDx=0;exitDy=0;entryX=1;entryY=0.5;entryDx=0;entryDy=0;" edge="1" parent="WIyWlLk6GJQsqaUBKTNV-1" source="GzKHJA3VvgUtTRqvoM-W-35" target="GzKHJA3VvgUtTRqvoM-W-41">
          <mxGeometry relative="1" as="geometry">
            <mxPoint x="480" y="1360" as="sourcePoint" />
          </mxGeometry>
        </mxCell>
        <mxCell id="GzKHJA3VvgUtTRqvoM-W-83" style="edgeStyle=orthogonalEdgeStyle;rounded=0;orthogonalLoop=1;jettySize=auto;html=1;entryX=-0.003;entryY=0.592;entryDx=0;entryDy=0;entryPerimeter=0;exitX=0.75;exitY=1;exitDx=0;exitDy=0;" edge="1" parent="WIyWlLk6GJQsqaUBKTNV-1" source="GzKHJA3VvgUtTRqvoM-W-35" target="GzKHJA3VvgUtTRqvoM-W-38">
          <mxGeometry relative="1" as="geometry" />
        </mxCell>
        <mxCell id="GzKHJA3VvgUtTRqvoM-W-35" value="Row" style="rounded=1;whiteSpace=wrap;html=1;" vertex="1" parent="WIyWlLk6GJQsqaUBKTNV-1">
          <mxGeometry x="440" y="1280" width="120" height="60" as="geometry" />
        </mxCell>
        <mxCell id="GzKHJA3VvgUtTRqvoM-W-70" value="" style="edgeStyle=orthogonalEdgeStyle;rounded=0;orthogonalLoop=1;jettySize=auto;html=1;" edge="1" parent="WIyWlLk6GJQsqaUBKTNV-1" source="GzKHJA3VvgUtTRqvoM-W-36" target="GzKHJA3VvgUtTRqvoM-W-37">
          <mxGeometry relative="1" as="geometry" />
        </mxCell>
        <mxCell id="GzKHJA3VvgUtTRqvoM-W-36" value="boxsize" style="rounded=1;whiteSpace=wrap;html=1;" vertex="1" parent="WIyWlLk6GJQsqaUBKTNV-1">
          <mxGeometry x="574" y="1280" width="120" height="60" as="geometry" />
        </mxCell>
        <mxCell id="GzKHJA3VvgUtTRqvoM-W-71" value="" style="edgeStyle=orthogonalEdgeStyle;rounded=0;orthogonalLoop=1;jettySize=auto;html=1;" edge="1" parent="WIyWlLk6GJQsqaUBKTNV-1" source="GzKHJA3VvgUtTRqvoM-W-37" target="GzKHJA3VvgUtTRqvoM-W-39">
          <mxGeometry relative="1" as="geometry" />
        </mxCell>
        <mxCell id="GzKHJA3VvgUtTRqvoM-W-82" style="edgeStyle=orthogonalEdgeStyle;rounded=0;orthogonalLoop=1;jettySize=auto;html=1;entryX=0;entryY=0.5;entryDx=0;entryDy=0;" edge="1" parent="WIyWlLk6GJQsqaUBKTNV-1" source="GzKHJA3VvgUtTRqvoM-W-37" target="GzKHJA3VvgUtTRqvoM-W-40">
          <mxGeometry relative="1" as="geometry">
            <Array as="points">
              <mxPoint x="760" y="1390" />
            </Array>
          </mxGeometry>
        </mxCell>
        <mxCell id="GzKHJA3VvgUtTRqvoM-W-37" value="extended" style="rounded=1;whiteSpace=wrap;html=1;" vertex="1" parent="WIyWlLk6GJQsqaUBKTNV-1">
          <mxGeometry x="714" y="1280" width="120" height="60" as="geometry" />
        </mxCell>
        <mxCell id="GzKHJA3VvgUtTRqvoM-W-38" value="ปลายทาง" style="rounded=1;whiteSpace=wrap;html=1;" vertex="1" parent="WIyWlLk6GJQsqaUBKTNV-1">
          <mxGeometry x="550" y="1380" width="120" height="60" as="geometry" />
        </mxCell>
        <mxCell id="GzKHJA3VvgUtTRqvoM-W-39" value="icon" style="rounded=1;whiteSpace=wrap;html=1;" vertex="1" parent="WIyWlLk6GJQsqaUBKTNV-1">
          <mxGeometry x="854" y="1280" width="120" height="60" as="geometry" />
        </mxCell>
        <mxCell id="GzKHJA3VvgUtTRqvoM-W-40" value="ต้นทาง" style="rounded=1;whiteSpace=wrap;html=1;" vertex="1" parent="WIyWlLk6GJQsqaUBKTNV-1">
          <mxGeometry x="854" y="1360" width="120" height="60" as="geometry" />
        </mxCell>
        <mxCell id="GzKHJA3VvgUtTRqvoM-W-41" value="icon" style="rounded=1;whiteSpace=wrap;html=1;" vertex="1" parent="WIyWlLk6GJQsqaUBKTNV-1">
          <mxGeometry x="330" y="1380" width="120" height="60" as="geometry" />
        </mxCell>
        <mxCell id="GzKHJA3VvgUtTRqvoM-W-78" value="" style="edgeStyle=orthogonalEdgeStyle;rounded=0;orthogonalLoop=1;jettySize=auto;html=1;" edge="1" parent="WIyWlLk6GJQsqaUBKTNV-1" source="GzKHJA3VvgUtTRqvoM-W-42" target="GzKHJA3VvgUtTRqvoM-W-43">
          <mxGeometry relative="1" as="geometry" />
        </mxCell>
        <mxCell id="GzKHJA3VvgUtTRqvoM-W-42" value="container" style="rounded=1;whiteSpace=wrap;html=1;" vertex="1" parent="WIyWlLk6GJQsqaUBKTNV-1">
          <mxGeometry x="310" y="1490" width="120" height="60" as="geometry" />
        </mxCell>
        <mxCell id="GzKHJA3VvgUtTRqvoM-W-79" value="" style="edgeStyle=orthogonalEdgeStyle;rounded=0;orthogonalLoop=1;jettySize=auto;html=1;" edge="1" parent="WIyWlLk6GJQsqaUBKTNV-1" source="GzKHJA3VvgUtTRqvoM-W-43" target="GzKHJA3VvgUtTRqvoM-W-44">
          <mxGeometry relative="1" as="geometry" />
        </mxCell>
        <mxCell id="GzKHJA3VvgUtTRqvoM-W-84" style="edgeStyle=orthogonalEdgeStyle;rounded=0;orthogonalLoop=1;jettySize=auto;html=1;entryX=0;entryY=0.5;entryDx=0;entryDy=0;" edge="1" parent="WIyWlLk6GJQsqaUBKTNV-1" target="GzKHJA3VvgUtTRqvoM-W-47">
          <mxGeometry relative="1" as="geometry">
            <mxPoint x="510" y="1552" as="sourcePoint" />
            <Array as="points">
              <mxPoint x="510" y="1610" />
            </Array>
          </mxGeometry>
        </mxCell>
        <mxCell id="GzKHJA3VvgUtTRqvoM-W-43" value="Row" style="rounded=1;whiteSpace=wrap;html=1;" vertex="1" parent="WIyWlLk6GJQsqaUBKTNV-1">
          <mxGeometry x="450" y="1490" width="120" height="60" as="geometry" />
        </mxCell>
        <mxCell id="GzKHJA3VvgUtTRqvoM-W-80" value="" style="edgeStyle=orthogonalEdgeStyle;rounded=0;orthogonalLoop=1;jettySize=auto;html=1;" edge="1" parent="WIyWlLk6GJQsqaUBKTNV-1" source="GzKHJA3VvgUtTRqvoM-W-44" target="GzKHJA3VvgUtTRqvoM-W-45">
          <mxGeometry relative="1" as="geometry" />
        </mxCell>
        <mxCell id="GzKHJA3VvgUtTRqvoM-W-44" value="boxsize" style="rounded=1;whiteSpace=wrap;html=1;" vertex="1" parent="WIyWlLk6GJQsqaUBKTNV-1">
          <mxGeometry x="604" y="1490" width="120" height="60" as="geometry" />
        </mxCell>
        <mxCell id="GzKHJA3VvgUtTRqvoM-W-81" value="" style="edgeStyle=orthogonalEdgeStyle;rounded=0;orthogonalLoop=1;jettySize=auto;html=1;" edge="1" parent="WIyWlLk6GJQsqaUBKTNV-1" source="GzKHJA3VvgUtTRqvoM-W-45" target="GzKHJA3VvgUtTRqvoM-W-46">
          <mxGeometry relative="1" as="geometry" />
        </mxCell>
        <mxCell id="GzKHJA3VvgUtTRqvoM-W-45" value="extended" style="rounded=1;whiteSpace=wrap;html=1;" vertex="1" parent="WIyWlLk6GJQsqaUBKTNV-1">
          <mxGeometry x="750" y="1490" width="120" height="60" as="geometry" />
        </mxCell>
        <mxCell id="GzKHJA3VvgUtTRqvoM-W-46" value="icon*5" style="rounded=1;whiteSpace=wrap;html=1;" vertex="1" parent="WIyWlLk6GJQsqaUBKTNV-1">
          <mxGeometry x="900" y="1490" width="120" height="60" as="geometry" />
        </mxCell>
        <mxCell id="GzKHJA3VvgUtTRqvoM-W-47" value="เที่ยวขึ้น" style="rounded=1;whiteSpace=wrap;html=1;" vertex="1" parent="WIyWlLk6GJQsqaUBKTNV-1">
          <mxGeometry x="580" y="1580" width="120" height="60" as="geometry" />
        </mxCell>
        <mxCell id="GzKHJA3VvgUtTRqvoM-W-85" value="" style="edgeStyle=orthogonalEdgeStyle;rounded=0;orthogonalLoop=1;jettySize=auto;html=1;" edge="1" parent="WIyWlLk6GJQsqaUBKTNV-1" source="GzKHJA3VvgUtTRqvoM-W-48" target="GzKHJA3VvgUtTRqvoM-W-49">
          <mxGeometry relative="1" as="geometry" />
        </mxCell>
        <mxCell id="GzKHJA3VvgUtTRqvoM-W-48" value="container" style="rounded=1;whiteSpace=wrap;html=1;" vertex="1" parent="WIyWlLk6GJQsqaUBKTNV-1">
          <mxGeometry x="310" y="1670" width="120" height="60" as="geometry" />
        </mxCell>
        <mxCell id="GzKHJA3VvgUtTRqvoM-W-86" value="" style="edgeStyle=orthogonalEdgeStyle;rounded=0;orthogonalLoop=1;jettySize=auto;html=1;" edge="1" parent="WIyWlLk6GJQsqaUBKTNV-1" source="GzKHJA3VvgUtTRqvoM-W-49" target="GzKHJA3VvgUtTRqvoM-W-50">
          <mxGeometry relative="1" as="geometry" />
        </mxCell>
        <mxCell id="GzKHJA3VvgUtTRqvoM-W-89" style="edgeStyle=orthogonalEdgeStyle;rounded=0;orthogonalLoop=1;jettySize=auto;html=1;entryX=0;entryY=0.5;entryDx=0;entryDy=0;exitX=0.5;exitY=1;exitDx=0;exitDy=0;" edge="1" parent="WIyWlLk6GJQsqaUBKTNV-1" source="GzKHJA3VvgUtTRqvoM-W-49" target="GzKHJA3VvgUtTRqvoM-W-53">
          <mxGeometry relative="1" as="geometry" />
        </mxCell>
        <mxCell id="GzKHJA3VvgUtTRqvoM-W-49" value="Row" style="rounded=1;whiteSpace=wrap;html=1;" vertex="1" parent="WIyWlLk6GJQsqaUBKTNV-1">
          <mxGeometry x="450" y="1670" width="120" height="60" as="geometry" />
        </mxCell>
        <mxCell id="GzKHJA3VvgUtTRqvoM-W-87" value="" style="edgeStyle=orthogonalEdgeStyle;rounded=0;orthogonalLoop=1;jettySize=auto;html=1;" edge="1" parent="WIyWlLk6GJQsqaUBKTNV-1" source="GzKHJA3VvgUtTRqvoM-W-50" target="GzKHJA3VvgUtTRqvoM-W-51">
          <mxGeometry relative="1" as="geometry" />
        </mxCell>
        <mxCell id="GzKHJA3VvgUtTRqvoM-W-50" value="boxsize" style="rounded=1;whiteSpace=wrap;html=1;" vertex="1" parent="WIyWlLk6GJQsqaUBKTNV-1">
          <mxGeometry x="604" y="1670" width="120" height="60" as="geometry" />
        </mxCell>
        <mxCell id="GzKHJA3VvgUtTRqvoM-W-88" value="" style="edgeStyle=orthogonalEdgeStyle;rounded=0;orthogonalLoop=1;jettySize=auto;html=1;" edge="1" parent="WIyWlLk6GJQsqaUBKTNV-1" source="GzKHJA3VvgUtTRqvoM-W-51" target="GzKHJA3VvgUtTRqvoM-W-52">
          <mxGeometry relative="1" as="geometry" />
        </mxCell>
        <mxCell id="GzKHJA3VvgUtTRqvoM-W-51" value="extended" style="rounded=1;whiteSpace=wrap;html=1;" vertex="1" parent="WIyWlLk6GJQsqaUBKTNV-1">
          <mxGeometry x="750" y="1670" width="120" height="60" as="geometry" />
        </mxCell>
        <mxCell id="GzKHJA3VvgUtTRqvoM-W-52" value="update" style="rounded=1;whiteSpace=wrap;html=1;" vertex="1" parent="WIyWlLk6GJQsqaUBKTNV-1">
          <mxGeometry x="900" y="1670" width="120" height="60" as="geometry" />
        </mxCell>
        <mxCell id="GzKHJA3VvgUtTRqvoM-W-53" value="เวลา" style="rounded=1;whiteSpace=wrap;html=1;" vertex="1" parent="WIyWlLk6GJQsqaUBKTNV-1">
          <mxGeometry x="580" y="1770" width="120" height="60" as="geometry" />
        </mxCell>
        <mxCell id="GzKHJA3VvgUtTRqvoM-W-54" value="Scaford" style="rounded=1;whiteSpace=wrap;html=1;" vertex="1" parent="WIyWlLk6GJQsqaUBKTNV-1">
          <mxGeometry x="160" y="510" width="120" height="60" as="geometry" />
        </mxCell>
        <mxCell id="GzKHJA3VvgUtTRqvoM-W-55" value="" style="endArrow=classic;html=1;exitX=0.5;exitY=1;exitDx=0;exitDy=0;" edge="1" parent="WIyWlLk6GJQsqaUBKTNV-1" source="GzKHJA3VvgUtTRqvoM-W-54" target="GzKHJA3VvgUtTRqvoM-W-13">
          <mxGeometry width="50" height="50" relative="1" as="geometry">
            <mxPoint x="340" y="710" as="sourcePoint" />
            <mxPoint x="390" y="660" as="targetPoint" />
          </mxGeometry>
        </mxCell>
      </root>
    </mxGraphModel>
  </diagram>
</mxfile>
